# xmcd CD database file
#
# Track frame offsets:
#	150
#	33943
#	73505
#	103927
#	139514
#	172738
#	211666
#	236261
#	263915
#
# Disc length: 4040 seconds
#
# Revision: 0
# Processed by: cddbd v1.5.2PL0 Copyright (c) Steve Scherf et al.
# Submitted via: CDex 1.51
#
DISCID=6e0fc609
DTITLE=Logic? - Logic?
DYEAR=2001
DGENRE=Jazz
TTITLE0=Signs and Symbols
TTITLE1=It's Getting Dark
TTITLE2=Norwegian Wood
TTITLE3=Farewell
TTITLE4=The 3rd Degree
TTITLE5=Small Green Room
TTITLE6=Signal Station
TTITLE7=Caught Short
TTITLE8=Giant Steps
EXTD=YEAR: 2001
EXTT0=
EXTT1=
EXTT2=
EXTT3=
EXTT4=
EXTT5=
EXTT6=
EXTT7=
EXTT8=
PLAYORDER=
